<svg xmlns="http://www.w3.org/2000/svg" width="292" height="191" version="1.1" viewBox="408 17 700 208"><rect width="103" height="20" x="423" y="32" style="fill:#007;stroke:#000"/><text width="103" height="20" x="428" y="46" font-family="Arial" font-size="16" style="fill:#fff">artwork</text><rect width="103" height="20" x="423" y="52" style="fill:none;stroke:#000"/><text width="103" height="20" x="428" y="66" font-family="Arial" font-size="16" style="fill:#000">aname</text><rect width="103" height="20" x="423" y="72" style="fill:none;stroke:#000"/><text width="103" height="20" x="428" y="86" font-family="Arial" font-size="16" style="fill:#000">artist</text><rect width="103" height="20" x="423" y="92" style="fill:none;stroke:#000"/><text width="103" height="20" x="428" y="106" font-family="Arial" font-size="16" style="fill:#000">price</text><rect width="103" height="20" x="423" y="112" style="fill:none;stroke:#000"/><text width="103" height="20" x="428" y="126" font-family="Arial" font-size="16" style="fill:#000">atype</text><rect width="103" height="20" x="582" y="34" style="fill:#007;stroke:#000"/><text width="103" height="20" x="587" y="48" font-family="Arial" font-size="16" style="fill:#fff">subscriptions</text><rect width="103" height="20" x="582" y="54" style="fill:none;stroke:#000"/><text width="103" height="20" x="587" y="68" font-family="Arial" font-size="16" style="fill:#000">fname</text><rect width="103" height="20" x="582" y="74" style="fill:none;stroke:#000"/><text width="103" height="20" x="587" y="88" font-family="Arial" font-size="16" style="fill:#000">email</text><rect width="103" height="20" x="582" y="133" style="fill:#007;stroke:#000"/><text width="103" height="20" x="587" y="147" font-family="Arial" font-size="16" style="fill:#fff">users</text><rect width="103" height="20" x="582" y="153" style="fill:none;stroke:#000"/><text width="103" height="20" x="587" y="167" font-family="Arial" font-size="16" style="fill:#000">username</text><rect width="103" height="20" x="582" y="173" style="fill:none;stroke:#000"/><text width="103" height="20" x="587" y="187" font-family="Arial" font-size="16" style="fill:#000">password</text></svg>