<?xml version="1.0" encoding="UTF-8"?>
<!DOCTYPE svg
PUBLIC "-//W3C//DTD SVG 1.1//EN"
       "http://www.w3.org/Graphics/SVG/1.1/DTD/svg11.dtd">
<svg viewBox="408 17 700 208" width="292px" height="191px" xmlns="http://www.w3.org/2000/svg" version="1.1">
   <rect width="103" height="20" x="423" y="32" style="fill:#007;stroke:black;"/>
   <text width="103" height="20" x="428" y="46" style="fill:#fff;" font-family="Arial" font-size="16px"> artwork</text>
   <rect width="103" height="20" x="423" y="52" style="fill:none;stroke:black;"/>
   <text width="103" height="20" x="428" y="66" style="fill:black;" font-family="Arial" font-size="16px">aname</text>
   <rect width="103" height="20" x="423" y="72" style="fill:none;stroke:black;"/>
   <text width="103" height="20" x="428" y="86" style="fill:black;" font-family="Arial" font-size="16px">artist</text>
   <rect width="103" height="20" x="423" y="92" style="fill:none;stroke:black;"/>
   <text width="103" height="20" x="428" y="106" style="fill:black;" font-family="Arial" font-size="16px">price</text>
   <rect width="103" height="20" x="423" y="112" style="fill:none;stroke:black;"/>
   <text width="103" height="20" x="428" y="126" style="fill:black;" font-family="Arial" font-size="16px">atype</text>
   <rect width="103" height="20" x="582" y="34" style="fill:#007;stroke:black;"/>
   <text width="103" height="20" x="587" y="48" style="fill:#fff;" font-family="Arial" font-size="16px"> subscriptions</text>
   <rect width="103" height="20" x="582" y="54" style="fill:none;stroke:black;"/>
   <text width="103" height="20" x="587" y="68" style="fill:black;" font-family="Arial" font-size="16px">fname</text>
   <rect width="103" height="20" x="582" y="74" style="fill:none;stroke:black;"/>
   <text width="103" height="20" x="587" y="88" style="fill:black;" font-family="Arial" font-size="16px">email</text>
   <rect width="103" height="20" x="582" y="133" style="fill:#007;stroke:black;"/>
   <text width="103" height="20" x="587" y="147" style="fill:#fff;" font-family="Arial" font-size="16px"> users</text>
   <rect width="103" height="20" x="582" y="153" style="fill:none;stroke:black;"/>
   <text width="103" height="20" x="587" y="167" style="fill:black;" font-family="Arial" font-size="16px">username</text>
   <rect width="103" height="20" x="582" y="173" style="fill:none;stroke:black;"/>
   <text width="103" height="20" x="587" y="187" style="fill:black;" font-family="Arial" font-size="16px">password</text>
</svg>
